<svg width="593" height="365" viewBox="0 0 593 365" fill="none" xmlns="http://www.w3.org/2000/svg">
<rect width="593" height="365" rx="21" fill="#334756"/>
<path d="M34.2593 48.22C33.8633 48.22 33.4819 48.154 33.1153 48.022C32.7486 47.89 32.4479 47.6553 32.2133 47.318C31.9786 46.9807 31.8613 46.5113 31.8613 45.91V35.944H33.8193V45.668C33.8193 46.0053 33.8926 46.2473 34.0393 46.394C34.1859 46.5407 34.4206 46.614 34.7433 46.614C34.8753 46.614 35.0146 46.5993 35.1613 46.57C35.3079 46.5407 35.4473 46.504 35.5793 46.46L35.8433 47.89C35.5646 48.022 35.2933 48.11 35.0293 48.154C34.7653 48.198 34.5086 48.22 34.2593 48.22ZM38.9093 48L36.7313 35.944H38.7333L39.5913 41.18C39.6647 41.6053 39.738 42.1553 39.8113 42.83C39.8847 43.5047 39.9727 44.304 40.0753 45.228H40.1413C40.2733 44.5973 40.398 44.0327 40.5153 43.534C40.6473 43.0353 40.7647 42.588 40.8673 42.192C40.9847 41.7813 41.0873 41.422 41.1753 41.114L42.6493 35.944H44.2553L45.7513 41.114C45.8393 41.422 45.9347 41.7813 46.0373 42.192C46.1547 42.588 46.272 43.0353 46.3893 43.534C46.5213 44.0327 46.6533 44.5973 46.7853 45.228H46.8733C46.9613 44.304 47.042 43.5047 47.1153 42.83C47.1887 42.1553 47.262 41.6053 47.3353 41.18L48.2153 35.944H50.2173L48.0393 48H46.1253L44.1013 41.444C43.9987 41.0773 43.896 40.696 43.7933 40.3C43.7053 39.904 43.6173 39.3833 43.5293 38.738H43.4413C43.3827 39.1633 43.3167 39.5373 43.2433 39.86C43.17 40.1827 43.0967 40.4687 43.0233 40.718C42.95 40.9673 42.8767 41.2093 42.8033 41.444L40.8233 48H38.9093ZM39.9471 34.03V33.172L41.5531 32.468H49.2971V34.03H39.9471ZM47.4491 31.388V27.802H49.3191V31.388H47.4491ZM58.7162 48.22C57.7776 48.22 56.9636 48.0367 56.2742 47.67C55.5996 47.2887 55.1376 46.7607 54.8882 46.086H54.8002L54.6902 48H53.0842V35.944H55.0422V42.918C55.0422 43.6513 55.1669 44.2967 55.4162 44.854C55.6802 45.3967 56.0542 45.822 56.5382 46.13C57.0369 46.4233 57.6309 46.57 58.3202 46.57C59.1856 46.57 59.8309 46.3427 60.2562 45.888C60.6816 45.4333 60.8942 44.766 60.8942 43.886V35.944H62.8522V44.018C62.8522 44.986 62.6836 45.778 62.3462 46.394C62.0236 47.01 61.5542 47.472 60.9382 47.78C60.3222 48.0733 59.5816 48.22 58.7162 48.22ZM68.8419 48.22C68.2699 48.22 67.7126 48.1613 67.1699 48.044C66.6419 47.9267 66.0772 47.7067 65.4759 47.384L66.0919 45.888C66.4146 46.0787 66.7812 46.2473 67.1919 46.394C67.6026 46.526 68.0792 46.592 68.6219 46.592C69.7072 46.592 70.5506 46.196 71.1519 45.404C71.7679 44.5973 72.0759 43.4387 72.0759 41.928C72.0759 40.4467 71.7606 39.3173 71.1299 38.54C70.5139 37.748 69.5606 37.352 68.2699 37.352C67.8006 37.352 67.3239 37.4033 66.8399 37.506C66.3559 37.6087 65.9306 37.7627 65.5639 37.968V36.318C65.9892 36.098 66.4512 35.944 66.9499 35.856C67.4632 35.768 67.9766 35.724 68.4899 35.724C69.8099 35.724 70.8806 35.988 71.7019 36.516C72.5232 37.0293 73.1246 37.748 73.5059 38.672C73.8872 39.596 74.0779 40.6813 74.0779 41.928C74.0779 43.864 73.6379 45.3967 72.7579 46.526C71.8926 47.6553 70.5872 48.22 68.8419 48.22ZM64.3749 34.03V33.172L65.9809 32.468H73.7249V34.03H64.3749ZM81.518 48.22C80.1247 48.22 79.0467 47.89 78.284 47.23C77.536 46.5553 77.162 45.5507 77.162 44.216V42.874C77.162 42.1407 77.2647 41.5613 77.47 41.136C77.6754 40.7107 77.8954 40.344 78.13 40.036C78.3794 39.6987 78.592 39.4053 78.768 39.156C78.9587 38.9067 79.054 38.606 79.054 38.254C79.054 37.946 78.9734 37.726 78.812 37.594C78.6654 37.462 78.4747 37.396 78.24 37.396C78.064 37.396 77.8734 37.4253 77.668 37.484C77.4774 37.5427 77.2867 37.616 77.096 37.704L76.656 36.296C76.92 36.12 77.2427 35.9953 77.624 35.922C78.02 35.8487 78.3647 35.812 78.658 35.812C79.2007 35.812 79.6334 35.9073 79.956 36.098C80.2934 36.2887 80.5354 36.5527 80.682 36.89C80.8287 37.2127 80.902 37.594 80.902 38.034C80.902 38.5767 80.8067 39.024 80.616 39.376C80.44 39.728 80.2274 40.0727 79.978 40.41C79.7287 40.7767 79.5234 41.1287 79.362 41.466C79.2007 41.8033 79.12 42.2433 79.12 42.786V44.084C79.12 44.7587 79.23 45.2793 79.45 45.646C79.67 46.0127 79.9634 46.2693 80.33 46.416C80.6967 46.548 81.0927 46.614 81.518 46.614C82.2514 46.614 82.8087 46.4453 83.19 46.108C83.5714 45.756 83.762 45.2207 83.762 44.502V41.422C83.762 40.8793 83.6374 40.4687 83.388 40.19C83.1387 39.8967 82.7354 39.75 82.178 39.75H82.09V38.496H82.2C82.8014 38.496 83.2267 38.3567 83.476 38.078C83.7254 37.7993 83.872 37.462 83.916 37.066C83.9747 36.6553 84.004 36.2813 84.004 35.944H85.962C85.962 36.7213 85.8667 37.3813 85.676 37.924C85.4854 38.4667 85.0527 38.8627 84.378 39.112V39.2C84.7887 39.3027 85.082 39.4787 85.258 39.728C85.4487 39.9627 85.5734 40.234 85.632 40.542C85.6907 40.8353 85.72 41.1213 85.72 41.4V44.612C85.72 45.7413 85.368 46.6287 84.664 47.274C83.96 47.9047 82.9114 48.22 81.518 48.22ZM92.7557 48V39.442C92.7557 38.7233 92.5871 38.1953 92.2497 37.858C91.9271 37.5207 91.3771 37.352 90.5997 37.352C90.0717 37.352 89.5731 37.4253 89.1037 37.572C88.6491 37.704 88.2091 37.8947 87.7837 38.144V36.384C88.0771 36.2373 88.4951 36.0907 89.0377 35.944C89.5804 35.7973 90.2257 35.724 90.9737 35.724C91.7364 35.724 92.3964 35.834 92.9537 36.054C93.5111 36.274 93.9437 36.6407 94.2517 37.154C94.5597 37.6527 94.7137 38.32 94.7137 39.156V48H92.7557ZM101.011 48.22C100.615 48.22 100.234 48.154 99.8672 48.022C99.5006 47.89 99.1999 47.6553 98.9652 47.318C98.7306 46.9807 98.6132 46.5113 98.6132 45.91V35.944H100.571V45.668C100.571 46.0053 100.645 46.2473 100.791 46.394C100.938 46.5407 101.173 46.614 101.495 46.614C101.627 46.614 101.767 46.5993 101.913 46.57C102.06 46.5407 102.199 46.504 102.331 46.46L102.595 47.89C102.317 48.022 102.045 48.11 101.781 48.154C101.517 48.198 101.261 48.22 101.011 48.22ZM107.945 48.22C107.079 48.22 106.273 48.1393 105.525 47.978C104.791 47.802 104.168 47.5967 103.655 47.362L104.227 45.778C104.535 45.8953 104.887 46.02 105.283 46.152C105.679 46.284 106.104 46.394 106.559 46.482C107.028 46.5553 107.505 46.592 107.989 46.592C108.766 46.592 109.411 46.4453 109.925 46.152C110.438 45.8587 110.695 45.4333 110.695 44.876C110.695 44.5387 110.599 44.2527 110.409 44.018C110.233 43.7687 109.954 43.5413 109.573 43.336C109.191 43.1307 108.7 42.9327 108.099 42.742C107.175 42.4487 106.39 42.1407 105.745 41.818C105.114 41.4807 104.63 41.0847 104.293 40.63C103.97 40.1607 103.809 39.5813 103.809 38.892C103.809 38.276 103.97 37.7333 104.293 37.264C104.63 36.78 105.143 36.406 105.833 36.142C106.537 35.8633 107.431 35.724 108.517 35.724C109.221 35.724 109.881 35.79 110.497 35.922C111.127 36.0393 111.619 36.208 111.971 36.428V38.078C111.721 37.9607 111.406 37.8433 111.025 37.726C110.658 37.6087 110.255 37.5133 109.815 37.44C109.375 37.3667 108.92 37.33 108.451 37.33C107.468 37.33 106.771 37.484 106.361 37.792C105.965 38.0853 105.767 38.4227 105.767 38.804C105.767 39.1267 105.855 39.398 106.031 39.618C106.221 39.838 106.537 40.0507 106.977 40.256C107.431 40.4613 108.04 40.696 108.803 40.96C109.507 41.1947 110.152 41.466 110.739 41.774C111.325 42.082 111.787 42.4707 112.125 42.94C112.477 43.3947 112.653 43.9813 112.653 44.7C112.653 45.316 112.499 45.8953 112.191 46.438C111.897 46.966 111.406 47.3987 110.717 47.736C110.027 48.0587 109.103 48.22 107.945 48.22ZM103.283 34.03V33.172L104.889 32.468H112.633V34.03H103.283ZM110.807 33.172V30.686H112.655V33.172H110.807ZM119.941 48.198C118.753 48.198 117.8 48.044 117.081 47.736C116.377 47.428 115.864 46.9953 115.541 46.438C115.233 45.8807 115.079 45.2207 115.079 44.458C115.079 43.7833 115.174 43.248 115.365 42.852C115.57 42.4413 115.82 42.1407 116.113 41.95C116.421 41.7593 116.736 41.6347 117.059 41.576V41.488C116.766 41.4 116.458 41.2533 116.135 41.048C115.812 40.8427 115.541 40.5567 115.321 40.19C115.116 39.8233 115.013 39.3613 115.013 38.804C115.013 38.2907 115.13 37.8067 115.365 37.352C115.6 36.8973 115.981 36.5233 116.509 36.23C117.037 35.9367 117.734 35.79 118.599 35.79C118.951 35.79 119.318 35.8193 119.699 35.878C120.08 35.922 120.374 36.0027 120.579 36.12L120.227 37.638C120.066 37.5793 119.853 37.528 119.589 37.484C119.34 37.4253 119.076 37.396 118.797 37.396C118.181 37.396 117.726 37.5427 117.433 37.836C117.14 38.1147 116.993 38.4887 116.993 38.958C116.993 39.4713 117.118 39.86 117.367 40.124C117.631 40.388 117.961 40.5713 118.357 40.674C118.768 40.762 119.193 40.806 119.633 40.806H120.051V42.236H119.633C118.753 42.236 118.1 42.3973 117.675 42.72C117.264 43.028 117.059 43.5487 117.059 44.282C117.059 44.7073 117.14 45.096 117.301 45.448C117.477 45.8 117.77 46.0787 118.181 46.284C118.606 46.4893 119.193 46.592 119.941 46.592C120.689 46.592 121.268 46.4893 121.679 46.284C122.104 46.0787 122.405 45.7853 122.581 45.404C122.757 45.008 122.845 44.5387 122.845 43.996V35.944H124.803V43.864C124.803 45.404 124.407 46.5113 123.615 47.186C122.838 47.8607 121.613 48.198 119.941 48.198ZM132.519 48.22C131.654 48.22 130.906 48.0733 130.275 47.78C129.659 47.472 129.183 47.01 128.845 46.394C128.523 45.778 128.361 44.9787 128.361 43.996V35.944H130.319V43.886C130.319 44.766 130.539 45.4333 130.979 45.888C131.434 46.3427 132.087 46.57 132.937 46.57C133.964 46.57 134.756 46.24 135.313 45.58C135.885 44.92 136.171 44.0327 136.171 42.918V35.944H138.129V48H136.501L136.413 46.218H136.303C136.039 46.8047 135.577 47.2887 134.917 47.67C134.272 48.0367 133.473 48.22 132.519 48.22Z" fill="white"/>
<rect x="67.4314" y="103" width="194.23" height="30" fill="#C4C4C4"/>
<path d="M68 249H558.506V289H68V249Z" fill="#C4C4C4"/>
<rect x="283.609" y="175.051" width="99.1639" height="30" fill="#C4C4C4"/>
<path d="M457.445 175.051H556.609V205.051H457.445V175.051Z" fill="#C4C4C4"/>
<path d="M412.435 197.2C412.062 197.2 411.702 197.14 411.355 197.02C411.022 196.9 410.749 196.687 410.535 196.38C410.335 196.073 410.235 195.647 410.235 195.1V193.16C410.235 192.333 410.409 191.733 410.755 191.36C411.115 190.987 411.582 190.727 412.155 190.58L412.175 190.52L409.875 189.68V189.02C409.875 188.473 410.055 187.96 410.415 187.48C410.775 186.987 411.289 186.593 411.955 186.3C412.635 185.993 413.449 185.84 414.395 185.84C415.222 185.84 415.982 185.973 416.675 186.24C417.369 186.493 417.922 186.9 418.335 187.46C418.762 188.007 418.975 188.727 418.975 189.62V197H417.195V189.8C417.195 188.907 416.922 188.273 416.375 187.9C415.829 187.513 415.162 187.32 414.375 187.32C413.549 187.32 412.895 187.493 412.415 187.84C411.935 188.173 411.695 188.6 411.695 189.12L413.975 190.2L413.815 191.16C413.322 191.173 412.895 191.3 412.535 191.54C412.189 191.767 412.015 192.233 412.015 192.94V194.9C412.015 195.193 412.082 195.407 412.215 195.54C412.349 195.673 412.562 195.74 412.855 195.74C412.989 195.74 413.115 195.733 413.235 195.72C413.369 195.693 413.489 195.66 413.595 195.62L413.855 196.9C413.602 197.02 413.355 197.1 413.115 197.14C412.889 197.18 412.662 197.2 412.435 197.2ZM410.248 184.3V183.52L411.708 182.88H415.688L415.428 183.38C415.361 183.233 415.321 183.1 415.308 182.98C415.281 182.847 415.268 182.74 415.268 182.66C415.268 182.167 415.434 181.767 415.768 181.46C416.088 181.153 416.534 181 417.108 181C417.694 181 418.161 181.16 418.508 181.48C418.841 181.787 419.008 182.187 419.008 182.68C419.008 183.133 418.854 183.52 418.548 183.84C418.241 184.147 417.794 184.3 417.208 184.3H410.248ZM417.148 183.44C417.414 183.44 417.621 183.367 417.768 183.22C417.914 183.06 417.988 182.873 417.988 182.66C417.988 182.433 417.914 182.247 417.768 182.1C417.608 181.953 417.394 181.88 417.128 181.88C416.861 181.88 416.654 181.953 416.508 182.1C416.361 182.233 416.288 182.413 416.288 182.64C416.288 182.853 416.361 183.04 416.508 183.2C416.641 183.36 416.854 183.44 417.148 183.44ZM424.006 197L420.586 186.04H422.386L425.346 195.46H425.586C425.906 195.46 426.22 195.387 426.526 195.24C426.833 195.08 427.093 194.88 427.306 194.64C427.706 194.2 428 193.647 428.186 192.98C428.373 192.3 428.466 191.633 428.466 190.98C428.466 189.873 428.213 189.007 427.706 188.38C427.213 187.74 426.526 187.42 425.646 187.42C425.473 187.42 425.3 187.433 425.126 187.46C424.966 187.487 424.833 187.52 424.726 187.56L424.286 186.14C424.566 186.06 424.826 186.007 425.066 185.98C425.32 185.953 425.546 185.94 425.746 185.94C426.413 185.94 427.006 186.04 427.526 186.24C428.06 186.427 428.513 186.707 428.886 187.08C429.353 187.533 429.693 188.1 429.906 188.78C430.133 189.46 430.246 190.213 430.246 191.04C430.246 192.08 430.086 193.007 429.766 193.82C429.446 194.62 429.046 195.26 428.566 195.74C428.18 196.127 427.706 196.433 427.146 196.66C426.586 196.887 425.873 197 425.006 197H424.006Z" fill="white"/>
<path d="M286.889 162.16C286.601 162.16 286.323 162.112 286.057 162.016C285.79 161.92 285.571 161.749 285.401 161.504C285.23 161.259 285.145 160.917 285.145 160.48V153.232H286.569V160.304C286.569 160.549 286.622 160.725 286.729 160.832C286.835 160.939 287.006 160.992 287.241 160.992C287.337 160.992 287.438 160.981 287.545 160.96C287.651 160.939 287.753 160.912 287.849 160.88L288.041 161.92C287.838 162.016 287.641 162.08 287.449 162.112C287.257 162.144 287.07 162.16 286.889 162.16ZM291.227 162.16C290.811 162.16 290.406 162.117 290.011 162.032C289.627 161.947 289.216 161.787 288.779 161.552L289.227 160.464C289.462 160.603 289.728 160.725 290.027 160.832C290.326 160.928 290.672 160.976 291.067 160.976C291.856 160.976 292.47 160.688 292.907 160.112C293.355 159.525 293.579 158.683 293.579 157.584C293.579 156.507 293.35 155.685 292.891 155.12C292.443 154.544 291.75 154.256 290.811 154.256C290.47 154.256 290.123 154.293 289.771 154.368C289.419 154.443 289.11 154.555 288.843 154.704V153.504C289.152 153.344 289.488 153.232 289.851 153.168C290.224 153.104 290.598 153.072 290.971 153.072C291.931 153.072 292.71 153.264 293.307 153.648C293.904 154.021 294.342 154.544 294.619 155.216C294.896 155.888 295.035 156.677 295.035 157.584C295.035 158.992 294.715 160.107 294.075 160.928C293.446 161.749 292.496 162.16 291.227 162.16ZM302.478 162V156.16C302.478 155.467 302.318 154.976 301.998 154.688C301.689 154.389 301.166 154.24 300.43 154.24C299.897 154.24 299.385 154.315 298.894 154.464C298.414 154.603 297.955 154.8 297.518 155.056V153.728C297.827 153.568 298.243 153.419 298.766 153.28C299.299 153.141 299.897 153.072 300.558 153.072C301.123 153.072 301.614 153.136 302.03 153.264C302.446 153.381 302.787 153.563 303.054 153.808C303.331 154.053 303.539 154.368 303.678 154.752C303.817 155.125 303.886 155.568 303.886 156.08V162H302.478ZM299.726 162.16C298.787 162.16 298.067 161.947 297.566 161.52C297.075 161.083 296.83 160.459 296.83 159.648C296.83 158.763 297.15 158.08 297.79 157.6C298.441 157.12 299.491 156.837 300.942 156.752L302.766 156.64V157.824L301.134 157.936C300.046 158.011 299.294 158.181 298.878 158.448C298.473 158.715 298.27 159.104 298.27 159.616C298.27 160.096 298.419 160.448 298.718 160.672C299.027 160.896 299.454 161.008 299.998 161.008C300.179 161.008 300.345 160.997 300.494 160.976C300.643 160.944 300.787 160.907 300.926 160.864L301.15 161.936C300.947 162.011 300.723 162.064 300.478 162.096C300.243 162.139 299.993 162.16 299.726 162.16ZM308.963 162V155.776C308.963 155.253 308.84 154.869 308.595 154.624C308.36 154.379 307.96 154.256 307.395 154.256C307.011 154.256 306.648 154.309 306.307 154.416C305.976 154.512 305.656 154.651 305.347 154.832V153.552C305.56 153.445 305.864 153.339 306.259 153.232C306.653 153.125 307.123 153.072 307.667 153.072C308.221 153.072 308.701 153.152 309.107 153.312C309.512 153.472 309.827 153.739 310.051 154.112C310.275 154.475 310.387 154.96 310.387 155.568V162H308.963ZM314.967 162.16C314.679 162.16 314.401 162.112 314.135 162.016C313.868 161.92 313.649 161.749 313.479 161.504C313.308 161.259 313.223 160.917 313.223 160.48V153.232H314.647V160.304C314.647 160.549 314.7 160.725 314.807 160.832C314.913 160.939 315.084 160.992 315.319 160.992C315.415 160.992 315.516 160.981 315.623 160.96C315.729 160.939 315.831 160.912 315.927 160.88L316.119 161.92C315.916 162.016 315.719 162.08 315.527 162.112C315.335 162.144 315.148 162.16 314.967 162.16ZM320.009 162.16C319.38 162.16 318.793 162.101 318.249 161.984C317.716 161.856 317.263 161.707 316.889 161.536L317.305 160.384C317.529 160.469 317.785 160.56 318.073 160.656C318.361 160.752 318.671 160.832 319.001 160.896C319.343 160.949 319.689 160.976 320.041 160.976C320.607 160.976 321.076 160.869 321.449 160.656C321.823 160.443 322.009 160.133 322.009 159.728C322.009 159.483 321.94 159.275 321.801 159.104C321.673 158.923 321.471 158.757 321.193 158.608C320.916 158.459 320.559 158.315 320.121 158.176C319.449 157.963 318.879 157.739 318.409 157.504C317.951 157.259 317.599 156.971 317.353 156.64C317.119 156.299 317.001 155.877 317.001 155.376C317.001 154.928 317.119 154.533 317.353 154.192C317.599 153.84 317.972 153.568 318.473 153.376C318.985 153.173 319.636 153.072 320.425 153.072C320.937 153.072 321.417 153.12 321.865 153.216C322.324 153.301 322.681 153.424 322.937 153.584V154.784C322.756 154.699 322.527 154.613 322.249 154.528C321.983 154.443 321.689 154.373 321.369 154.32C321.049 154.267 320.719 154.24 320.377 154.24C319.663 154.24 319.156 154.352 318.857 154.576C318.569 154.789 318.425 155.035 318.425 155.312C318.425 155.547 318.489 155.744 318.617 155.904C318.756 156.064 318.985 156.219 319.305 156.368C319.636 156.517 320.079 156.688 320.633 156.88C321.145 157.051 321.615 157.248 322.041 157.472C322.468 157.696 322.804 157.979 323.049 158.32C323.305 158.651 323.433 159.077 323.433 159.6C323.433 160.048 323.321 160.469 323.097 160.864C322.884 161.248 322.527 161.563 322.025 161.808C321.524 162.043 320.852 162.16 320.009 162.16ZM316.619 151.84V151.216L317.787 150.704H323.419V151.84H316.619ZM322.091 151.216V149.408H323.435V151.216H322.091ZM328.734 162.144C327.87 162.144 327.176 162.032 326.654 161.808C326.142 161.584 325.768 161.269 325.534 160.864C325.31 160.459 325.198 159.979 325.198 159.424C325.198 158.933 325.267 158.544 325.406 158.256C325.555 157.957 325.736 157.739 325.95 157.6C326.174 157.461 326.403 157.371 326.638 157.328V157.264C326.424 157.2 326.2 157.093 325.966 156.944C325.731 156.795 325.534 156.587 325.374 156.32C325.224 156.053 325.15 155.717 325.15 155.312C325.15 154.939 325.235 154.587 325.406 154.256C325.576 153.925 325.854 153.653 326.238 153.44C326.622 153.227 327.128 153.12 327.758 153.12C328.014 153.12 328.28 153.141 328.558 153.184C328.835 153.216 329.048 153.275 329.198 153.36L328.942 154.464C328.824 154.421 328.67 154.384 328.478 154.352C328.296 154.309 328.104 154.288 327.902 154.288C327.454 154.288 327.123 154.395 326.91 154.608C326.696 154.811 326.59 155.083 326.59 155.424C326.59 155.797 326.68 156.08 326.862 156.272C327.054 156.464 327.294 156.597 327.582 156.672C327.88 156.736 328.19 156.768 328.51 156.768H328.814V157.808H328.51C327.87 157.808 327.395 157.925 327.086 158.16C326.787 158.384 326.638 158.763 326.638 159.296C326.638 159.605 326.696 159.888 326.814 160.144C326.942 160.4 327.155 160.603 327.454 160.752C327.763 160.901 328.19 160.976 328.734 160.976C329.278 160.976 329.699 160.901 329.998 160.752C330.307 160.603 330.526 160.389 330.654 160.112C330.782 159.824 330.846 159.483 330.846 159.088V153.232H332.27V158.992C332.27 160.112 331.982 160.917 331.406 161.408C330.84 161.899 329.95 162.144 328.734 162.144ZM337.882 162.16C337.252 162.16 336.708 162.053 336.25 161.84C335.802 161.616 335.455 161.28 335.21 160.832C334.975 160.384 334.858 159.803 334.858 159.088V153.232H336.282V159.008C336.282 159.648 336.442 160.133 336.762 160.464C337.092 160.795 337.567 160.96 338.186 160.96C338.932 160.96 339.508 160.72 339.914 160.24C340.33 159.76 340.538 159.115 340.538 158.304V153.232H341.962V162H340.778L340.714 160.704H340.634C340.442 161.131 340.106 161.483 339.626 161.76C339.156 162.027 338.575 162.16 337.882 162.16Z" fill="white"/>
<path d="M71.8314 89.16C70.8181 89.16 70.0341 88.92 69.4794 88.44C68.9354 87.9493 68.6634 87.2187 68.6634 86.248V85.272C68.6634 84.7387 68.7381 84.3173 68.8874 84.008C69.0367 83.6987 69.1967 83.432 69.3674 83.208C69.5487 82.9627 69.7034 82.7493 69.8314 82.568C69.9701 82.3867 70.0394 82.168 70.0394 81.912C70.0394 81.688 69.9807 81.528 69.8634 81.432C69.7567 81.336 69.6181 81.288 69.4474 81.288C69.3194 81.288 69.1807 81.3093 69.0314 81.352C68.8927 81.3947 68.7541 81.448 68.6154 81.512L68.2954 80.488C68.4874 80.36 68.7221 80.2693 68.9994 80.216C69.2874 80.1627 69.5381 80.136 69.7514 80.136C70.1461 80.136 70.4607 80.2053 70.6954 80.344C70.9407 80.4827 71.1167 80.6747 71.2234 80.92C71.3301 81.1547 71.3834 81.432 71.3834 81.752C71.3834 82.1467 71.3141 82.472 71.1754 82.728C71.0474 82.984 70.8927 83.2347 70.7114 83.48C70.5301 83.7467 70.3807 84.0027 70.2634 84.248C70.1461 84.4933 70.0874 84.8133 70.0874 85.208V86.152C70.0874 86.6427 70.1674 87.0213 70.3274 87.288C70.4874 87.5547 70.7007 87.7413 70.9674 87.848C71.2341 87.944 71.5221 87.992 71.8314 87.992C72.3647 87.992 72.7701 87.8693 73.0474 87.624C73.3247 87.368 73.4634 86.9787 73.4634 86.456V84.216C73.4634 83.8213 73.3727 83.5227 73.1914 83.32C73.0101 83.1067 72.7167 83 72.3114 83H72.2474V82.088H72.3274C72.7647 82.088 73.0741 81.9867 73.2554 81.784C73.4367 81.5813 73.5434 81.336 73.5754 81.048C73.6181 80.7493 73.6394 80.4773 73.6394 80.232H75.0634C75.0634 80.7973 74.9941 81.2773 74.8554 81.672C74.7167 82.0667 74.4021 82.3547 73.9114 82.536V82.6C74.2101 82.6747 74.4234 82.8027 74.5514 82.984C74.6901 83.1547 74.7807 83.352 74.8234 83.576C74.8661 83.7893 74.8874 83.9973 74.8874 84.2V86.536C74.8874 87.3573 74.6314 88.0027 74.1194 88.472C73.6074 88.9307 72.8447 89.16 71.8314 89.16ZM68.2699 78.84V78.216L69.4379 77.704H75.0699V78.84H68.2699ZM71.5659 78.216V76.408H72.7499V78.216H71.5659ZM73.9019 78.216V76.408H75.0699V78.216H73.9019ZM72.679 75.464V72.856H74.039V75.464H72.679ZM80.6283 89.16C79.4763 89.16 78.6123 88.8613 78.0363 88.264C77.4709 87.656 77.1883 86.7067 77.1883 85.416C77.1883 85.2027 77.1936 84.9733 77.2043 84.728C77.2256 84.472 77.2469 84.2213 77.2683 83.976H80.6283V85.096H78.6123V85.416C78.6123 86.088 78.6869 86.616 78.8363 87C78.9856 87.3733 79.2043 87.6347 79.4923 87.784C79.7909 87.9333 80.1589 88.008 80.5963 88.008C81.0763 88.008 81.4923 87.9173 81.8443 87.736C82.1963 87.5547 82.4683 87.224 82.6603 86.744C82.8523 86.264 82.9483 85.576 82.9483 84.68C82.9483 83.8907 82.8629 83.2453 82.6923 82.744C82.5216 82.2427 82.2389 81.8693 81.8443 81.624C81.4603 81.3787 80.9376 81.256 80.2763 81.256C79.9349 81.256 79.6043 81.288 79.2843 81.352C78.9643 81.4053 78.6549 81.4907 78.3563 81.608C78.0576 81.7147 77.7643 81.8533 77.4763 82.024V80.696C77.6896 80.5787 77.9509 80.4773 78.2603 80.392C78.5696 80.296 78.9109 80.2213 79.2843 80.168C79.6576 80.104 80.0469 80.072 80.4523 80.072C81.3909 80.072 82.1483 80.264 82.7243 80.648C83.3109 81.0213 83.7376 81.5547 84.0043 82.248C84.2709 82.9307 84.4043 83.7413 84.4043 84.68C84.4043 85.6187 84.2816 86.424 84.0363 87.096C83.7909 87.768 83.3909 88.28 82.8363 88.632C82.2923 88.984 81.5563 89.16 80.6283 89.16ZM88.4718 89.16C88.0558 89.16 87.6504 89.1173 87.2558 89.032C86.8718 88.9467 86.4611 88.7867 86.0238 88.552L86.4718 87.464C86.7064 87.6027 86.9731 87.7253 87.2718 87.832C87.5704 87.928 87.9171 87.976 88.3118 87.976C89.1011 87.976 89.7144 87.688 90.1518 87.112C90.5998 86.5253 90.8238 85.6827 90.8238 84.584C90.8238 83.5067 90.5944 82.6853 90.1358 82.12C89.6878 81.544 88.9944 81.256 88.0558 81.256C87.7144 81.256 87.3678 81.2933 87.0158 81.368C86.6638 81.4427 86.3544 81.5547 86.0878 81.704V80.504C86.3971 80.344 86.7331 80.232 87.0958 80.168C87.4691 80.104 87.8424 80.072 88.2158 80.072C89.1758 80.072 89.9544 80.264 90.5518 80.648C91.1491 81.0213 91.5864 81.544 91.8638 82.216C92.1411 82.888 92.2798 83.6773 92.2798 84.584C92.2798 85.992 91.9598 87.1067 91.3198 87.928C90.6904 88.7493 89.7411 89.16 88.4718 89.16ZM85.223 78.84V78.216L86.391 77.704H92.023V78.84H85.223ZM97.6908 89.16C96.6774 89.16 95.8934 88.92 95.3388 88.44C94.7948 87.9493 94.5228 87.2187 94.5228 86.248V85.272C94.5228 84.7387 94.5974 84.3173 94.7468 84.008C94.8961 83.6987 95.0561 83.432 95.2268 83.208C95.4081 82.9627 95.5628 82.7493 95.6908 82.568C95.8294 82.3867 95.8988 82.168 95.8988 81.912C95.8988 81.688 95.8401 81.528 95.7228 81.432C95.6161 81.336 95.4774 81.288 95.3068 81.288C95.1788 81.288 95.0401 81.3093 94.8908 81.352C94.7521 81.3947 94.6134 81.448 94.4748 81.512L94.1548 80.488C94.3468 80.36 94.5814 80.2693 94.8588 80.216C95.1468 80.1627 95.3974 80.136 95.6108 80.136C96.0054 80.136 96.3201 80.2053 96.5548 80.344C96.8001 80.4827 96.9761 80.6747 97.0828 80.92C97.1894 81.1547 97.2428 81.432 97.2428 81.752C97.2428 82.1467 97.1734 82.472 97.0348 82.728C96.9068 82.984 96.7521 83.2347 96.5708 83.48C96.3894 83.7467 96.2401 84.0027 96.1228 84.248C96.0054 84.4933 95.9468 84.8133 95.9468 85.208V86.152C95.9468 86.6427 96.0268 87.0213 96.1868 87.288C96.3468 87.5547 96.5601 87.7413 96.8268 87.848C97.0934 87.944 97.3814 87.992 97.6908 87.992C98.2241 87.992 98.6294 87.8693 98.9068 87.624C99.1841 87.368 99.3228 86.9787 99.3228 86.456V84.216C99.3228 83.8213 99.2321 83.5227 99.0508 83.32C98.8694 83.1067 98.5761 83 98.1708 83H98.1068V82.088H98.1868C98.6241 82.088 98.9334 81.9867 99.1148 81.784C99.2961 81.5813 99.4028 81.336 99.4348 81.048C99.4774 80.7493 99.4988 80.4773 99.4988 80.232H100.923C100.923 80.7973 100.853 81.2773 100.715 81.672C100.576 82.0667 100.261 82.3547 99.7708 82.536V82.6C100.069 82.6747 100.283 82.8027 100.411 82.984C100.549 83.1547 100.64 83.352 100.683 83.576C100.725 83.7893 100.747 83.9973 100.747 84.2V86.536C100.747 87.3573 100.491 88.0027 99.9788 88.472C99.4668 88.9307 98.7041 89.16 97.6908 89.16ZM105.864 89V82.776C105.864 82.2533 105.741 81.8693 105.496 81.624C105.261 81.3787 104.861 81.256 104.296 81.256C103.912 81.256 103.549 81.3093 103.208 81.416C102.877 81.512 102.557 81.6507 102.248 81.832V80.552C102.461 80.4453 102.765 80.3387 103.16 80.232C103.554 80.1253 104.024 80.072 104.568 80.072C105.122 80.072 105.602 80.152 106.008 80.312C106.413 80.472 106.728 80.7387 106.952 81.112C107.176 81.4747 107.288 81.96 107.288 82.568V89H105.864Z" fill="white"/>
<path d="M70.4874 162.16C70.0714 162.16 69.6661 162.117 69.2714 162.032C68.8874 161.947 68.4767 161.787 68.0394 161.552L68.4874 160.464C68.7221 160.603 68.9887 160.725 69.2874 160.832C69.5861 160.928 69.9327 160.976 70.3274 160.976C71.1167 160.976 71.7301 160.688 72.1674 160.112C72.6154 159.525 72.8394 158.683 72.8394 157.584C72.8394 156.507 72.6101 155.685 72.1514 155.12C71.7034 154.544 71.0101 154.256 70.0714 154.256C69.7301 154.256 69.3834 154.293 69.0314 154.368C68.6794 154.443 68.3701 154.555 68.1034 154.704V153.504C68.4127 153.344 68.7487 153.232 69.1114 153.168C69.4847 153.104 69.8581 153.072 70.2314 153.072C71.1914 153.072 71.9701 153.264 72.5674 153.648C73.1647 154.021 73.6021 154.544 73.8794 155.216C74.1567 155.888 74.2954 156.677 74.2954 157.584C74.2954 158.992 73.9754 160.107 73.3354 160.928C72.7061 161.749 71.7567 162.16 70.4874 162.16ZM72.0066 151.84C71.5586 151.84 71.2013 151.776 70.9346 151.648C70.668 151.52 70.476 151.355 70.3586 151.152C70.2306 150.949 70.1666 150.736 70.1666 150.512C70.1666 150.352 70.1933 150.181 70.2466 150C70.2893 149.808 70.348 149.653 70.4226 149.536L71.6226 149.744C71.6013 149.787 71.58 149.861 71.5586 149.968C71.5373 150.064 71.5266 150.155 71.5266 150.24C71.5266 150.379 71.5693 150.501 71.6546 150.608C71.74 150.704 71.884 150.752 72.0866 150.752H76.1346V151.84H72.0066ZM79.6264 162.16C78.9971 162.16 78.4531 162.053 77.9944 161.84C77.5464 161.616 77.1997 161.28 76.9544 160.832C76.7197 160.384 76.6024 159.803 76.6024 159.088V153.232H78.0264V159.008C78.0264 159.648 78.1864 160.133 78.5064 160.464C78.8371 160.795 79.3117 160.96 79.9304 160.96C80.6771 160.96 81.2531 160.72 81.6584 160.24C82.0744 159.76 82.2824 159.115 82.2824 158.304V153.232H83.7064V162H82.5224L82.4584 160.704H82.3784C82.1864 161.131 81.8504 161.483 81.3704 161.76C80.9011 162.027 80.3197 162.16 79.6264 162.16ZM86.4629 162V153.232H87.4549L87.7109 154.624H87.7749C87.9562 154.144 88.2869 153.765 88.7669 153.488C89.2469 153.211 89.8282 153.072 90.5109 153.072C91.1509 153.072 91.6949 153.184 92.1429 153.408C92.6016 153.621 92.9536 153.952 93.1989 154.4C93.4442 154.848 93.5669 155.429 93.5669 156.144V162H92.1429V156.224C92.1429 155.584 91.9829 155.099 91.6629 154.768C91.3429 154.437 90.8682 154.272 90.2389 154.272C89.7376 154.272 89.3109 154.389 88.9589 154.624C88.6069 154.859 88.3402 155.179 88.1589 155.584C87.9776 155.979 87.8869 156.427 87.8869 156.928V162H86.4629ZM86.598 151.84V151.216L87.766 150.704H93.398V151.84H86.598ZM92.07 151.216V149.408H93.414V151.216H92.07ZM92.054 148.464V145.856H93.414V148.464H92.054ZM98.1489 162.16C97.8609 162.16 97.5836 162.112 97.3169 162.016C97.0502 161.92 96.8316 161.749 96.6609 161.504C96.4902 161.259 96.4049 160.917 96.4049 160.48V153.232H97.8289V160.304C97.8289 160.549 97.8822 160.725 97.9889 160.832C98.0956 160.939 98.2662 160.992 98.5009 160.992C98.5969 160.992 98.6982 160.981 98.8049 160.96C98.9116 160.939 99.0129 160.912 99.1089 160.88L99.3009 161.92C99.0982 162.016 98.9009 162.08 98.7089 162.112C98.5169 162.144 98.3302 162.16 98.1489 162.16ZM103.191 162.16C102.562 162.16 101.975 162.101 101.431 161.984C100.898 161.856 100.445 161.707 100.071 161.536L100.487 160.384C100.711 160.469 100.967 160.56 101.255 160.656C101.543 160.752 101.853 160.832 102.183 160.896C102.525 160.949 102.871 160.976 103.223 160.976C103.789 160.976 104.258 160.869 104.631 160.656C105.005 160.443 105.191 160.133 105.191 159.728C105.191 159.483 105.122 159.275 104.983 159.104C104.855 158.923 104.653 158.757 104.375 158.608C104.098 158.459 103.741 158.315 103.303 158.176C102.631 157.963 102.061 157.739 101.591 157.504C101.133 157.259 100.781 156.971 100.535 156.64C100.301 156.299 100.183 155.877 100.183 155.376C100.183 154.928 100.301 154.533 100.535 154.192C100.781 153.84 101.154 153.568 101.655 153.376C102.167 153.173 102.818 153.072 103.607 153.072C104.119 153.072 104.599 153.12 105.047 153.216C105.506 153.301 105.863 153.424 106.119 153.584V154.784C105.938 154.699 105.709 154.613 105.431 154.528C105.165 154.443 104.871 154.373 104.551 154.32C104.231 154.267 103.901 154.24 103.559 154.24C102.845 154.24 102.338 154.352 102.039 154.576C101.751 154.789 101.607 155.035 101.607 155.312C101.607 155.547 101.671 155.744 101.799 155.904C101.938 156.064 102.167 156.219 102.487 156.368C102.818 156.517 103.261 156.688 103.815 156.88C104.327 157.051 104.797 157.248 105.223 157.472C105.65 157.696 105.986 157.979 106.231 158.32C106.487 158.651 106.615 159.077 106.615 159.6C106.615 160.048 106.503 160.469 106.279 160.864C106.066 161.248 105.709 161.563 105.207 161.808C104.706 162.043 104.034 162.16 103.191 162.16ZM99.8011 151.84V151.216L100.969 150.704H106.601V151.84H99.8011ZM105.273 151.216V149.408H106.617V151.216H105.273ZM111.916 162.144C111.052 162.144 110.359 162.032 109.836 161.808C109.324 161.584 108.951 161.269 108.716 160.864C108.492 160.459 108.38 159.979 108.38 159.424C108.38 158.933 108.449 158.544 108.588 158.256C108.737 157.957 108.919 157.739 109.132 157.6C109.356 157.461 109.585 157.371 109.82 157.328V157.264C109.607 157.2 109.383 157.093 109.148 156.944C108.913 156.795 108.716 156.587 108.556 156.32C108.407 156.053 108.332 155.717 108.332 155.312C108.332 154.939 108.417 154.587 108.588 154.256C108.759 153.925 109.036 153.653 109.42 153.44C109.804 153.227 110.311 153.12 110.94 153.12C111.196 153.12 111.463 153.141 111.74 153.184C112.017 153.216 112.231 153.275 112.38 153.36L112.124 154.464C112.007 154.421 111.852 154.384 111.66 154.352C111.479 154.309 111.287 154.288 111.084 154.288C110.636 154.288 110.305 154.395 110.092 154.608C109.879 154.811 109.772 155.083 109.772 155.424C109.772 155.797 109.863 156.08 110.044 156.272C110.236 156.464 110.476 156.597 110.764 156.672C111.063 156.736 111.372 156.768 111.692 156.768H111.996V157.808H111.692C111.052 157.808 110.577 157.925 110.268 158.16C109.969 158.384 109.82 158.763 109.82 159.296C109.82 159.605 109.879 159.888 109.996 160.144C110.124 160.4 110.337 160.603 110.636 160.752C110.945 160.901 111.372 160.976 111.916 160.976C112.46 160.976 112.881 160.901 113.18 160.752C113.489 160.603 113.708 160.389 113.836 160.112C113.964 159.824 114.028 159.483 114.028 159.088V153.232H115.452V158.992C115.452 160.112 115.164 160.917 114.588 161.408C114.023 161.899 113.132 162.144 111.916 162.144ZM121.064 162.16C120.435 162.16 119.891 162.053 119.432 161.84C118.984 161.616 118.637 161.28 118.392 160.832C118.157 160.384 118.04 159.803 118.04 159.088V153.232H119.464V159.008C119.464 159.648 119.624 160.133 119.944 160.464C120.275 160.795 120.749 160.96 121.368 160.96C122.115 160.96 122.691 160.72 123.096 160.24C123.512 159.76 123.72 159.115 123.72 158.304V153.232H125.144V162H123.96L123.896 160.704H123.816C123.624 161.131 123.288 161.483 122.808 161.76C122.339 162.027 121.757 162.16 121.064 162.16Z" fill="white"/>
<path d="M69.4454 238V224.13H71.3074V238H69.4454ZM70.9274 238V236.328H77.2734V238H70.9274ZM80.0084 238V227.854H81.8324V238H80.0084ZM78.4504 229.298V227.854H81.8324V229.298H78.4504ZM80.5214 226.22C80.116 226.22 79.812 226.112 79.6094 225.897C79.4194 225.682 79.3244 225.409 79.3244 225.08C79.3244 224.751 79.4194 224.478 79.6094 224.263C79.812 224.048 80.116 223.94 80.5214 223.94C80.9267 223.94 81.2244 224.048 81.4144 224.263C81.617 224.478 81.7184 224.751 81.7184 225.08C81.7184 225.409 81.617 225.682 81.4144 225.897C81.2244 226.112 80.9267 226.22 80.5214 226.22ZM85.3591 238V227.854H86.8031V232.205H86.5751C86.5751 231.204 86.7081 230.362 86.9741 229.678C87.2528 228.981 87.6708 228.456 88.2281 228.101C88.7854 227.734 89.4884 227.55 90.3371 227.55H90.4131C91.6924 227.55 92.6361 227.949 93.2441 228.747C93.8648 229.545 94.1751 230.698 94.1751 232.205V238H92.3511V231.825C92.3511 231.04 92.1294 230.413 91.6861 229.944C91.2428 229.463 90.6348 229.222 89.8621 229.222C89.0641 229.222 88.4181 229.469 87.9241 229.963C87.4301 230.457 87.1831 231.116 87.1831 231.939V238H85.3591ZM104.504 238L100.685 233.269H99.0134L103.668 227.854H105.587L101.369 232.737L101.502 231.768L106.613 238H104.504ZM97.5124 238V224.13H99.3364V238H97.5124Z" fill="white"/>
<rect x="408.555" y="312" width="71.398" height="38" rx="10" fill="#a6ba7d"/>
<path d="M426.324 338.2C425.204 338.2 424.337 337.947 423.724 337.44C423.111 336.92 422.684 336.22 422.444 335.34C422.204 334.447 422.084 333.433 422.084 332.3C422.084 330.993 422.204 329.94 422.444 329.14C422.697 328.34 423.064 327.76 423.544 327.4C424.024 327.027 424.611 326.84 425.304 326.84C425.771 326.84 426.164 326.92 426.484 327.08C426.817 327.24 427.051 327.507 427.184 327.88H427.264C427.397 327.493 427.637 327.227 427.984 327.08C428.331 326.92 428.737 326.84 429.204 326.84C430.071 326.84 430.737 327.073 431.204 327.54C431.684 327.993 431.924 328.693 431.924 329.64V338H430.144V329.66C430.144 329.14 430.031 328.787 429.804 328.6C429.577 328.413 429.291 328.32 428.944 328.32C428.557 328.32 428.271 328.413 428.084 328.6C427.911 328.787 427.804 329.093 427.764 329.52H426.644C426.591 329.053 426.451 328.74 426.224 328.58C425.997 328.407 425.744 328.32 425.464 328.32C424.931 328.32 424.531 328.633 424.264 329.26C423.997 329.873 423.864 330.893 423.864 332.32C423.864 333.24 423.931 334.027 424.064 334.68C424.211 335.333 424.477 335.84 424.864 336.2C425.251 336.547 425.811 336.72 426.544 336.72C426.811 336.72 427.031 336.707 427.204 336.68C427.377 336.653 427.544 336.62 427.704 336.58L427.884 337.94C427.684 338.033 427.444 338.1 427.164 338.14C426.884 338.18 426.604 338.2 426.324 338.2ZM435.059 338V334.2C435.059 333.36 435.246 332.753 435.619 332.38C435.992 331.993 436.466 331.727 437.039 331.58L437.059 331.52L434.859 330.68V330.02C434.859 329.473 435.039 328.96 435.399 328.48C435.759 327.987 436.272 327.593 436.939 327.3C437.619 326.993 438.426 326.84 439.359 326.84C440.172 326.84 440.926 326.973 441.619 327.24C442.312 327.493 442.866 327.9 443.279 328.46C443.706 329.007 443.919 329.727 443.919 330.62V338H442.139V330.8C442.139 329.907 441.866 329.273 441.319 328.9C440.786 328.513 440.126 328.32 439.339 328.32C438.526 328.32 437.879 328.493 437.399 328.84C436.919 329.173 436.679 329.6 436.679 330.12L438.839 331.2L438.679 332.16C438.186 332.16 437.752 332.327 437.379 332.66C437.019 332.98 436.839 333.493 436.839 334.2V338H435.059ZM453.571 338V330.7C453.571 329.833 453.371 329.22 452.971 328.86C452.584 328.487 451.931 328.3 451.011 328.3C450.344 328.3 449.704 328.393 449.091 328.58C448.491 328.753 447.918 329 447.371 329.32V327.66C447.758 327.46 448.278 327.273 448.931 327.1C449.598 326.927 450.344 326.84 451.171 326.84C451.878 326.84 452.491 326.92 453.011 327.08C453.531 327.227 453.958 327.453 454.291 327.76C454.638 328.067 454.898 328.46 455.071 328.94C455.244 329.407 455.331 329.96 455.331 330.6V338H453.571ZM450.131 338.2C448.958 338.2 448.058 337.933 447.431 337.4C446.818 336.853 446.511 336.073 446.511 335.06C446.511 333.953 446.911 333.1 447.711 332.5C448.524 331.9 449.838 331.547 451.651 331.44L453.931 331.3V332.78L451.891 332.92C450.531 333.013 449.591 333.227 449.071 333.56C448.564 333.893 448.311 334.38 448.311 335.02C448.311 335.62 448.498 336.06 448.871 336.34C449.258 336.62 449.791 336.76 450.471 336.76C450.698 336.76 450.904 336.747 451.091 336.72C451.278 336.68 451.458 336.633 451.631 336.58L451.911 337.92C451.658 338.013 451.378 338.08 451.071 338.12C450.778 338.173 450.464 338.2 450.131 338.2ZM460.377 338L456.957 327.04H458.757L461.717 336.46H461.957C462.277 336.46 462.59 336.387 462.897 336.24C463.204 336.08 463.464 335.88 463.677 335.64C464.077 335.2 464.37 334.647 464.557 333.98C464.744 333.3 464.837 332.633 464.837 331.98C464.837 330.873 464.584 330.007 464.077 329.38C463.584 328.74 462.897 328.42 462.017 328.42C461.844 328.42 461.67 328.433 461.497 328.46C461.337 328.487 461.204 328.52 461.097 328.56L460.657 327.14C460.937 327.06 461.197 327.007 461.437 326.98C461.69 326.953 461.917 326.94 462.117 326.94C462.784 326.94 463.377 327.04 463.897 327.24C464.43 327.427 464.884 327.707 465.257 328.08C465.724 328.533 466.064 329.1 466.277 329.78C466.504 330.46 466.617 331.213 466.617 332.04C466.617 333.08 466.457 334.007 466.137 334.82C465.817 335.62 465.417 336.26 464.937 336.74C464.55 337.127 464.077 337.433 463.517 337.66C462.957 337.887 462.244 338 461.377 338H460.377Z" fill="white"/>
<rect x="487.886" y="312" width="70.8985" height="38.0153" rx="10" fill="#bd6c7b"/>
<path d="M504.219 338.18C503.139 338.18 502.272 338.04 501.619 337.76C500.979 337.48 500.512 337.087 500.219 336.58C499.939 336.073 499.799 335.473 499.799 334.78C499.799 334.167 499.886 333.68 500.059 333.32C500.246 332.947 500.472 332.673 500.739 332.5C501.019 332.327 501.306 332.213 501.599 332.16V332.08C501.332 332 501.052 331.867 500.759 331.68C500.466 331.493 500.219 331.233 500.019 330.9C499.832 330.567 499.739 330.147 499.739 329.64C499.739 329.173 499.846 328.733 500.059 328.32C500.272 327.907 500.619 327.567 501.099 327.3C501.579 327.033 502.212 326.9 502.999 326.9C503.319 326.9 503.652 326.927 503.999 326.98C504.346 327.02 504.612 327.093 504.799 327.2L504.479 328.58C504.332 328.527 504.139 328.48 503.899 328.44C503.672 328.387 503.432 328.36 503.179 328.36C502.619 328.36 502.206 328.493 501.939 328.76C501.672 329.013 501.539 329.353 501.539 329.78C501.539 330.247 501.652 330.6 501.879 330.84C502.119 331.08 502.419 331.247 502.779 331.34C503.152 331.42 503.539 331.46 503.939 331.46H504.319V332.76H503.939C503.139 332.76 502.546 332.907 502.159 333.2C501.786 333.48 501.599 333.953 501.599 334.62C501.599 335.007 501.672 335.36 501.819 335.68C501.979 336 502.246 336.253 502.619 336.44C503.006 336.627 503.539 336.72 504.219 336.72C504.899 336.72 505.426 336.627 505.799 336.44C506.186 336.253 506.459 335.987 506.619 335.64C506.779 335.28 506.859 334.853 506.859 334.36V327.04H508.639V334.24C508.639 335.64 508.279 336.647 507.559 337.26C506.852 337.873 505.739 338.18 504.219 338.18ZM511.774 338V334.2C511.774 333.36 511.961 332.753 512.334 332.38C512.707 331.993 513.181 331.727 513.754 331.58L513.774 331.52L511.574 330.68V330.02C511.574 329.473 511.754 328.96 512.114 328.48C512.474 327.987 512.987 327.593 513.654 327.3C514.334 326.993 515.141 326.84 516.074 326.84C516.887 326.84 517.641 326.973 518.334 327.24C519.027 327.493 519.581 327.9 519.994 328.46C520.421 329.007 520.634 329.727 520.634 330.62V338H518.854V330.8C518.854 329.907 518.581 329.273 518.034 328.9C517.501 328.513 516.841 328.32 516.054 328.32C515.241 328.32 514.594 328.493 514.114 328.84C513.634 329.173 513.394 329.6 513.394 330.12L515.554 331.2L515.394 332.16C514.901 332.16 514.467 332.327 514.094 332.66C513.734 332.98 513.554 333.493 513.554 334.2V338H511.774ZM526.346 338.2C525.986 338.2 525.639 338.14 525.306 338.02C524.973 337.9 524.699 337.687 524.486 337.38C524.273 337.073 524.166 336.647 524.166 336.1V327.04H525.946V335.88C525.946 336.187 526.013 336.407 526.146 336.54C526.279 336.673 526.493 336.74 526.786 336.74C526.906 336.74 527.033 336.727 527.166 336.7C527.299 336.673 527.426 336.64 527.546 336.6L527.786 337.9C527.533 338.02 527.286 338.1 527.046 338.14C526.806 338.18 526.573 338.2 526.346 338.2ZM535.989 338V330.7C535.989 329.833 535.789 329.22 535.389 328.86C535.003 328.487 534.349 328.3 533.429 328.3C532.763 328.3 532.123 328.393 531.509 328.58C530.909 328.753 530.336 329 529.789 329.32V327.66C530.176 327.46 530.696 327.273 531.349 327.1C532.016 326.927 532.763 326.84 533.589 326.84C534.296 326.84 534.909 326.92 535.429 327.08C535.949 327.227 536.376 327.453 536.709 327.76C537.056 328.067 537.316 328.46 537.489 328.94C537.663 329.407 537.749 329.96 537.749 330.6V338H535.989ZM532.549 338.2C531.376 338.2 530.476 337.933 529.849 337.4C529.236 336.853 528.929 336.073 528.929 335.06C528.929 333.953 529.329 333.1 530.129 332.5C530.943 331.9 532.256 331.547 534.069 331.44L536.349 331.3V332.78L534.309 332.92C532.949 333.013 532.009 333.227 531.489 333.56C530.983 333.893 530.729 334.38 530.729 335.02C530.729 335.62 530.916 336.06 531.289 336.34C531.676 336.62 532.209 336.76 532.889 336.76C533.116 336.76 533.323 336.747 533.509 336.72C533.696 336.68 533.876 336.633 534.049 336.58L534.329 337.92C534.076 338.013 533.796 338.08 533.489 338.12C533.196 338.173 532.883 338.2 532.549 338.2ZM528.958 325.3V324.52L530.418 323.88H537.458V325.3H528.958ZM540.895 338V334.2C540.895 333.36 541.082 332.753 541.455 332.38C541.828 331.993 542.302 331.727 542.875 331.58L542.895 331.52L540.695 330.68V330.02C540.695 329.473 540.875 328.96 541.235 328.48C541.595 327.987 542.108 327.593 542.775 327.3C543.455 326.993 544.262 326.84 545.195 326.84C546.008 326.84 546.762 326.973 547.455 327.24C548.148 327.493 548.702 327.9 549.115 328.46C549.542 329.007 549.755 329.727 549.755 330.62V338H547.975V330.8C547.975 329.907 547.702 329.273 547.155 328.9C546.622 328.513 545.962 328.32 545.175 328.32C544.362 328.32 543.715 328.493 543.235 328.84C542.755 329.173 542.515 329.6 542.515 330.12L544.675 331.2L544.515 332.16C544.022 332.16 543.588 332.327 543.215 332.66C542.855 332.98 542.675 333.493 542.675 334.2V338H540.895Z" fill="white"/>
<rect x="67" y="175" width="159.467" height="30" fill="#C4C4C4"/>
</svg>